<?xml version="1.0" standalone="no"?><!DOCTYPE svg PUBLIC "-//W3C//DTD SVG 1.1//EN" "http://www.w3.org/Graphics/SVG/1.1/DTD/svg11.dtd"><svg t="1725445314065" class="icon" viewBox="0 0 1024 1024" version="1.1" xmlns="http://www.w3.org/2000/svg" p-id="1717" xmlns:xlink="http://www.w3.org/1999/xlink" width="256" height="256"><path d="M372.306898 792.431381v45.303732H296.992643v185.950064h-46.775464v-186.014052H176.95055v-45.303732H372.306898z m377.851042-1.279766c38.392993 0 100.909584 20.796205 98.478028 81.073204-2.30358 57.58949-55.925794 74.098477-94.638729 75.378243h-38.201028v76.082115H670.492479v-232.59755h79.729449z m-240.020196 0a116.522735 116.522735 0 1 1 0 232.661539 114.283143 114.283143 0 0 1-85.296434-31.418266 115.56291 115.56291 0 0 1-30.970348-84.848515 115.690886 115.690886 0 0 1 30.970348-85.168457 114.475108 114.475108 0 0 1 85.296434-31.290289z m0 46.51951a69.299353 69.299353 0 0 0-52.27846 17.468812 70.387154 70.387154 0 0 0-17.468812 52.406436 69.939236 69.939236 0 0 0 17.596789 52.150482 68.787446 68.787446 0 0 0 52.150483 17.596789 70.387154 70.387154 0 0 0 52.406435-17.596789 69.619294 69.619294 0 0 0 17.468812-52.278459 69.875248 69.875248 0 0 0-17.468812-52.406436 69.683283 69.683283 0 0 0-52.342447-17.468812z m206.874245 0v63.540404h31.994161c33.017974 0 52.598401-11.197956 53.302272-30.842371 0.703872-17.084882-18.620602-30.586418-45.623673-32.378091h-39.608772zM481.982882 7.550622a25.595329 25.595329 0 0 1 36.281378 0l367.420946 367.420946a25.595329 25.595329 0 0 1-17.852742 43.576047H691.736602a25.595329 25.595329 0 0 0-25.595329 25.595329v274.445914a25.595329 25.595329 0 0 1-25.595329 25.595328h-275.149785a25.595329 25.595329 0 0 1-25.595329-25.595328V444.206932a25.595329 25.595329 0 0 0-25.595329-25.595329H156.090357a25.595329 25.595329 0 0 1-18.428637-43.576047z" p-id="1718" fill="#1b80e3"></path></svg>