<?xml version="1.0" standalone="no"?><!DOCTYPE svg PUBLIC "-//W3C//DTD SVG 1.1//EN" "http://www.w3.org/Graphics/SVG/1.1/DTD/svg11.dtd"><svg t="1725446722249" class="icon" viewBox="0 0 1024 1024" version="1.1" xmlns="http://www.w3.org/2000/svg" p-id="5169" xmlns:xlink="http://www.w3.org/1999/xlink" width="256" height="256"><path d="M0 0h1024v1024H0V0z" fill="#202425" opacity=".01" p-id="5170"></path><path d="M512 580.266667a68.266667 68.266667 0 1 1 0 136.533333 68.266667 68.266667 0 0 1 0-136.533333z m204.8-68.266667a68.266667 68.266667 0 1 1 0 136.533333 68.266667 68.266667 0 0 1 0-136.533333zM307.2 512a68.266667 68.266667 0 1 1 0 136.533333 68.266667 68.266667 0 0 1 0-136.533333z m580.266667-102.4a68.266667 68.266667 0 1 1 0 136.533333 68.266667 68.266667 0 0 1 0-136.533333zM136.533333 409.6a68.266667 68.266667 0 1 1 0 136.533333 68.266667 68.266667 0 0 1 0-136.533333z m375.466667-68.266667a85.333333 85.333333 0 1 1 0 170.666667 85.333333 85.333333 0 0 1 0-170.666667zM290.133333 238.933333a85.333333 85.333333 0 1 1 0 170.666667 85.333333 85.333333 0 0 1 0-170.666667z m443.733334 0a85.333333 85.333333 0 1 1 0 170.666667 85.333333 85.333333 0 0 1 0-170.666667zM512 68.266667a102.4 102.4 0 1 1 0 204.8 102.4 102.4 0 0 1 0-204.8z" fill="#FF7744" p-id="5171"></path><path d="M716.8 887.466667a34.133333 34.133333 0 1 1 0 68.266666 34.133333 34.133333 0 0 1 0-68.266666zM307.2 887.466667a34.133333 34.133333 0 1 1 0 68.266666 34.133333 34.133333 0 0 1 0-68.266666z m580.266667-102.4a51.2 51.2 0 1 1 0 102.4 51.2 51.2 0 0 1 0-102.4z m-375.466667 0a51.2 51.2 0 1 1 0 102.4 51.2 51.2 0 0 1 0-102.4zM136.533333 785.066667a51.2 51.2 0 1 1 0 102.4 51.2 51.2 0 0 1 0-102.4z m580.266667-68.266667a51.2 51.2 0 1 1 0 102.4 51.2 51.2 0 0 1 0-102.4zM307.2 716.8a51.2 51.2 0 1 1 0 102.4 51.2 51.2 0 0 1 0-102.4z m580.266667-102.4a51.2 51.2 0 1 1 0 102.4 51.2 51.2 0 0 1 0-102.4zM136.533333 614.4a51.2 51.2 0 1 1 0 102.4 51.2 51.2 0 0 1 0-102.4z" fill="#FFAA44" p-id="5172"></path></svg>