<?xml version="1.0" standalone="no"?><!DOCTYPE svg PUBLIC "-//W3C//DTD SVG 1.1//EN" "http://www.w3.org/Graphics/SVG/1.1/DTD/svg11.dtd"><svg t="1724659365278" class="icon" viewBox="0 0 1024 1024" version="1.1" xmlns="http://www.w3.org/2000/svg" p-id="2131" xmlns:xlink="http://www.w3.org/1999/xlink" width="128" height="128"><path d="M936 2H90.616c-47.497 0-86 38.504-86 86v846.565c0 47.497 38.503 86 86 86H936c47.496 0 86-38.503 86-86V88c0-47.496-38.504-86-86-86z m43 932.565c0 23.71-19.29 43-43 43H90.616c-23.71 0-43-19.29-43-43V88c0-23.71 19.29-43 43-43H936c23.71 0 43 19.29 43 43v846.565z" p-id="2132" fill="#1B80E3"></path><path d="M860.072 511.086H156.108c-10.769 0-19.499 8.73-19.499 19.499 0 10.769 8.73 19.499 19.499 19.499h703.964c10.769 0 19.499-8.73 19.499-19.499 0-10.769-8.73-19.499-19.499-19.499zM860.072 640.08H156.108c-10.769 0-19.499 8.73-19.499 19.499 0 10.769 8.73 19.499 19.499 19.499h703.964c10.769 0 19.499-8.73 19.499-19.499 0-10.769-8.73-19.499-19.499-19.499zM449.072 769.073H156.108c-10.769 0-19.499 8.73-19.499 19.499 0 10.769 8.73 19.499 19.499 19.499h292.964c10.769 0 19.499-8.73 19.499-19.499 0-10.769-8.73-19.499-19.499-19.499zM157.051 410.851c-2.214 1.418-6.502 2.745-12.872 3.981-1.949 0.356-2.919 1.771-2.919 4.246 0 1.062 0.174 2.48 0.531 4.247 3.89-0.357 8.228-0.664 13.004-0.929 4.777-0.265 8.933-0.398 12.474-0.398 3.89 0 8.095 0.133 12.606 0.398 4.512 0.266 8.978 0.572 13.402 0.929 0.353-1.767 0.531-3.185 0.531-4.247 0-2.476-0.887-3.89-2.654-4.246-7.079-1.236-11.855-2.563-14.332-3.981-2.479-1.414-3.715-3.89-3.715-7.431V278.418l107.751 141.987c1.414 1.945 2.654 3.226 3.715 3.848a6.738 6.738 0 0 0 3.45 0.929c0.531 0 1.236-0.045 2.123-0.132 0.883-0.091 1.501-0.224 1.858-0.398V268.333c0-3.538 1.103-6.104 3.317-7.697 2.21-1.592 6.324-2.828 12.341-3.715 1.767-0.174 2.654-1.68 2.654-4.512 0-1.062-0.178-2.476-0.531-4.247-4.072 0.357-8.227 0.664-12.474 0.929-4.246 0.265-8.318 0.398-12.208 0.398-4.072 0-8.406-0.133-13.004-0.398a593.794 593.794 0 0 1-13.535-0.929c-0.356 1.771-0.531 3.185-0.531 4.247 0 2.832 0.97 4.337 2.919 4.512 6.722 0.887 11.499 2.123 14.331 3.715 2.828 1.592 4.247 4.338 4.247 8.228V379.8l-95.277-127.125c-1.062-1.414-2.434-2.297-4.113-2.654-1.684-0.353-5.088-0.531-10.218-0.531-2.48 0-5.308-0.042-8.493-0.133-3.185-0.087-6.195-0.22-9.023-0.398a220.331 220.331 0 0 1-10.085-0.796c-0.178 0.709-0.265 1.327-0.265 1.858-0.178 0.709-0.266 1.505-0.266 2.389 0 2.654 0.971 4.159 2.919 4.512 6.37 0.887 10.57 2.082 12.606 3.583 2.032 1.505 3.052 3.674 3.052 6.502V403.42c0.002 3.541-1.106 6.017-3.316 7.431zM350.788 410.851c-2.919 1.418-7.742 2.745-14.464 3.981-1.771 0.356-2.654 1.771-2.654 4.246 0 1.062 0.174 2.48 0.531 4.247a770.093 770.093 0 0 1 16.72-0.929 363.994 363.994 0 0 1 16.455-0.398h58.122c2.297 0 5.042 0.087 8.228 0.266 3.185 0.174 6.324 0.307 9.421 0.398 3.093 0.087 5.971 0.22 8.625 0.398 2.654 0.174 4.686 0.266 6.104 0.266 1.767 0 3.226-1.501 4.379-4.512 1.149-3.007 2.256-6.635 3.317-10.881 1.062-4.247 2.165-8.712 3.317-13.402 1.149-4.686 2.521-8.713 4.114-12.076a80.721 80.721 0 0 0-2.787-1.592c-0.975-0.531-1.903-0.796-2.787-0.796-2.123 0-3.45 0.622-3.981 1.858-2.123 4.246-4.337 8.14-6.635 11.677-2.302 3.542-4.91 6.594-7.829 9.156-2.919 2.567-6.283 4.603-10.085 6.104-3.807 1.505-8.272 2.256-13.402 2.256H410.9c-10.973 0-18.843-0.618-23.62-1.857-4.777-1.236-7.166-3.716-7.166-7.431v-62.634h41.402c3.537 0 6.059 1.725 7.564 5.175 1.501 3.45 2.695 7.655 3.583 12.606 0.531 2.301 2.21 3.45 5.042 3.45 1.236 0 2.563-0.174 3.981-0.531-0.531-5.482-0.887-10.392-1.062-14.729-0.178-4.333-0.265-8.003-0.265-11.014 0-3.715 0.133-8.049 0.398-13.004 0.266-4.951 0.572-9.376 0.929-13.27-0.531-0.174-1.24-0.353-2.123-0.531-0.887-0.174-1.592-0.266-2.123-0.266-2.654 0-4.247 1.153-4.777 3.45-0.887 4.956-2.082 9.156-3.583 12.606-1.505 3.45-4.027 5.175-7.564 5.175h-41.402v-67.941h39.279c5.308 0 9.774 0.531 13.402 1.592 3.625 1.062 6.722 2.654 9.289 4.777 2.562 2.124 4.818 4.823 6.768 8.095 1.945 3.276 3.981 7.211 6.104 11.81 0.705 1.592 2.21 2.389 4.512 2.389a7.776 7.776 0 0 0 4.777-1.592c-1.949-3.185-3.276-7.075-3.981-11.677a565.991 565.991 0 0 1-1.858-13.004c-0.531-4.068-1.194-7.564-1.991-10.483-0.796-2.919-2.347-4.379-4.644-4.379-1.949 0-5.839 0.265-11.678 0.796-5.838 0.531-12.739 0.796-20.701 0.796H367.11c-4.072 0-8.671-0.087-13.8-0.266-5.134-0.174-11.503-0.531-19.109-1.062a19.23 19.23 0 0 0-0.398 1.991c-0.091 0.622-0.133 1.373-0.133 2.256 0 2.654 0.883 4.159 2.654 4.512 7.431 1.418 12.428 2.787 14.995 4.114 2.563 1.327 3.848 3.761 3.848 7.298V403.42c0 3.541-1.459 6.017-4.379 7.431zM486.271 257.187c6.369 0.888 10.749 1.949 13.138 3.185 2.389 1.24 4.022 3.098 4.909 5.573l57.061 154.46c1.062 3.185 2.654 4.777 4.777 4.777 1.062 0 1.944-0.178 2.653-0.531l45.117-129.248 44.321 125.001c1.062 3.185 2.654 4.777 4.777 4.777 0.883 0 1.857-0.178 2.919-0.531l55.999-157.379c1.235-3.359 3.227-5.706 5.972-7.033 2.74-1.327 6.768-2.343 12.075-3.052 2.123-0.353 3.185-1.945 3.185-4.777 0-0.531-0.091-1.236-0.266-2.123-0.178-0.883-0.265-1.593-0.265-2.124-2.833 0.357-6.681 0.664-11.545 0.929-4.868 0.265-9.422 0.398-13.668 0.398-3.894 0-8.36-0.133-13.402-0.398a586.814 586.814 0 0 1-14.464-0.929 17.327 17.327 0 0 0-0.531 4.247c0 2.832 0.971 4.337 2.919 4.512 5.661 0.709 9.774 1.684 12.342 2.919 2.562 1.24 3.848 3.098 3.848 5.573 0 0.709-0.091 1.505-0.266 2.389a24.802 24.802 0 0 1-0.796 2.919l-37.687 107.751-44.852-128.717c-0.709-2.297-1.949-3.45-3.716-3.45-0.709 0-1.592 0.178-2.653 0.531l-45.648 131.636-40.074-109.608c-0.53-1.062-0.796-2.124-0.796-3.185 0-2.654 1.414-4.644 4.246-5.971 2.828-1.327 6.81-2.256 11.943-2.787 1.944-0.353 2.919-1.858 2.919-4.512 0-1.062-0.178-2.476-0.53-4.247-5.486 0.357-11.371 0.664-17.649 0.929-6.282 0.265-11.636 0.398-16.056 0.398-2.124 0-4.558-0.042-7.299-0.133-2.745-0.087-5.573-0.174-8.493-0.265a281.99 281.99 0 0 1-8.758-0.398 662.338 662.338 0 0 1-8.094-0.531c-0.357 1.771-0.531 3.098-0.531 3.981 0.001 2.834 0.971 4.513 2.919 5.044zM757.771 412.708c6.191 3.716 13.755 6.727 22.691 9.023 8.933 2.297 18.885 3.45 29.857 3.45 10.438 0 19.374-1.327 26.805-3.981 7.431-2.654 13.489-6.324 18.18-11.014 4.686-4.686 8.136-10.172 10.351-16.455 2.21-6.278 3.317-13.046 3.317-20.303 0-12.03-4.026-22.161-12.075-30.388-8.054-8.228-20.568-15.7-37.554-22.426-13.627-5.482-23.932-10.881-30.919-16.189-6.991-5.308-10.483-12.117-10.483-20.436 0-3.89 0.838-7.431 2.521-10.616a24.925 24.925 0 0 1 6.768-8.095c2.828-2.21 6.146-3.89 9.952-5.042 3.803-1.148 7.829-1.725 12.076-1.725 10.968 0 19.639 2.301 26.009 6.9 6.369 4.603 11.852 11.943 16.454 22.028 0.531 1.062 1.327 2.036 2.389 2.919 1.062 0.887 2.741 1.327 5.043 1.327 0.883 0 2.21-0.174 3.98-0.531-1.062-5.308-1.903-11.014-2.521-17.118a490.493 490.493 0 0 1-1.459-17.118c-9.555-3.716-18.139-6.37-25.744-7.962-7.609-1.592-15.571-2.389-23.886-2.389-7.962 0-15.127 1.24-21.497 3.716-6.369 2.479-11.81 5.838-16.321 10.085-4.512 4.246-7.962 9.247-10.351 14.995-2.389 5.752-3.583 11.901-3.583 18.445 0 7.431 1.194 13.846 3.583 19.241 2.389 5.399 5.793 10.13 10.218 14.199 4.421 4.072 9.729 7.655 15.924 10.748 6.191 3.098 13.092 6.063 20.701 8.891 11.677 4.246 20.655 9.023 26.938 14.331 6.278 5.308 9.421 12.565 9.421 21.763 0 4.072-0.709 7.875-2.123 11.412-1.418 3.542-3.541 6.726-6.369 9.554-2.832 2.832-6.369 5.042-10.616 6.635-4.246 1.592-9.201 2.389-14.862 2.389-12.564 0-22.339-3.006-29.326-9.023-6.991-6.013-12.697-15.393-17.117-28.132-0.888-2.124-1.904-3.67-3.053-4.645-1.152-0.97-2.786-1.46-4.909-1.46-1.771 0-3.276 0.266-4.512 0.796a425.63 425.63 0 0 1 3.715 20.701 267.675 267.675 0 0 1 2.387 21.5z" p-id="2133" fill="#1B80E3"></path></svg>