<?xml version="1.0" standalone="no"?><!DOCTYPE svg PUBLIC "-//W3C//DTD SVG 1.1//EN" "http://www.w3.org/Graphics/SVG/1.1/DTD/svg11.dtd"><svg t="1724660018815" class="icon" viewBox="0 0 1024 1024" version="1.1" xmlns="http://www.w3.org/2000/svg" p-id="1287" xmlns:xlink="http://www.w3.org/1999/xlink" width="128" height="128"><path d="M774.656 967.168c-5.632 0-11.264-1.536-15.872-4.096L512 828.416l-246.272 134.656c-16.896 9.216-37.888 2.56-46.592-14.848-3.584-7.168-4.608-14.848-3.584-22.528l47.104-285.184-199.168-201.728c-13.824-13.824-13.824-36.352-0.512-50.688 5.12-5.632 12.288-9.216 19.968-10.24L358.4 336.384 481.28 76.8c8.192-17.92 29.184-25.088 46.08-16.384 6.656 3.584 12.288 9.216 15.872 16.384l123.392 259.584 275.456 41.472c18.944 3.072 31.744 20.992 29.184 40.448-1.024 7.68-4.608 14.848-10.24 20.48l-199.168 201.728 47.104 285.184c3.072 19.456-9.216 37.888-28.16 41.472h-6.144zM121.344 428.544L302.08 611.84c9.216 9.216 13.312 22.528 11.264 35.328l-42.496 258.56L494.08 783.36c11.264-6.144 24.576-6.144 35.84 0l223.232 121.856-42.496-258.56c-2.048-12.8 2.048-26.112 11.264-35.328l180.736-182.784-249.856-37.888c-12.288-2.048-23.552-10.24-28.672-22.016L512 134.144 400.384 369.152c-5.632 11.776-16.384 19.968-28.672 22.016l-250.368 37.376z" p-id="1288" fill="#1B80E3"></path></svg>