<?xml version="1.0" standalone="no"?><!DOCTYPE svg PUBLIC "-//W3C//DTD SVG 1.1//EN" "http://www.w3.org/Graphics/SVG/1.1/DTD/svg11.dtd"><svg t="1724659324408" class="icon" viewBox="0 0 1024 1024" version="1.1" xmlns="http://www.w3.org/2000/svg" p-id="1513" xmlns:xlink="http://www.w3.org/1999/xlink" width="128" height="128"><path d="M430.556022 1024c-9.225225 0-27.675676 0-27.675676-9.225225-9.225225-18.45045-9.225225-36.900901 0-73.801802l64.576577-175.279279c18.45045-64.576577 73.801802-101.477477 129.153153-101.477478 9.225225 0 18.45045 0 27.675675 9.225225 55.351351 18.45045 92.252252 92.252252 64.576577 147.603604-18.45045 64.576577-101.477477 138.378378-175.279279 175.279279l-46.126126 18.450451c-9.225225 0-27.675676 9.225225-36.900901 9.225225zM578.159625 738.018018c-27.675676 0-64.576577 27.675676-73.801802 64.576577l-46.126126 138.378378c-9.225225 18.45045-9.225225 27.675676-9.225225 27.675676s9.225225 0 27.675676-9.225226l27.675675-18.45045c46.126126-27.675676 101.477477-83.027027 119.927928-119.927928 9.225225-36.900901-9.225225-64.576577-36.900901-83.027027h-9.225225z m-276.756757 18.45045c-9.225225 0-27.675676 0-36.9009-9.225225C199.925391 728.792793 126.123589 645.765766 89.222688 571.963964l-18.45045-46.126126C52.321787 498.162162 52.321787 470.486486 61.547013 452.036036c9.225225-9.225225 18.45045-18.45045 36.900901-18.45045 9.225225 0 27.675676 0 46.126126 9.225225l175.279279 64.576576c36.900901 9.225225 64.576577 36.900901 83.027027 64.576577 18.45045 27.675676 18.45045 64.576577 9.225225 92.252252-18.45045 55.351351-64.576577 92.252252-110.702703 92.252252z m-184.504504-258.306306c-9.225225 0-9.225225 9.225225 0 27.675676l18.45045 27.675676c18.45045 46.126126 73.801802 101.477477 110.702703 110.702702h18.450451c27.675676 0 46.126126-18.45045 55.351351-36.900901 9.225225-18.45045 0-27.675676-9.225225-46.126126s-27.675676-27.675676-46.126126-36.900901L135.348814 498.162162H116.898364z m811.81982 184.504505c-9.225225 0-27.675676 0-46.126126-9.225226l-175.27928-64.576576c-36.900901-9.225225-64.576577-36.900901-83.027027-64.576577-18.45045-27.675676-18.45045-64.576577-9.225225-92.252252 18.45045-46.126126 64.576577-73.801802 110.702703-73.801802 9.225225 0 27.675676 0 36.900901 9.225225 64.576577 18.45045 138.378378 101.477477 175.279279 175.27928l18.45045 46.126126c18.45045 27.675676 18.45045 55.351351 9.225226 73.801802-9.225225-9.225225-27.675676 0-36.900901 0zM734.988454 442.810811c-27.675676 0-46.126126 18.45045-55.351351 36.900901-9.225225 27.675676 18.45045 64.576577 55.351351 83.027027l129.153153 46.126126c9.225225 0 18.45045 9.225225 27.675676 9.225225 0 0 0-9.225225-9.225225-27.675676l-18.450451-27.675675C845.691157 516.612613 790.339805 461.261261 753.438905 452.036036c0-9.225225-9.225225-9.225225-18.450451-9.225225z m-304.432432 27.675675c-9.225225 0-18.45045 0-27.675676-9.225225-55.351351-18.45045-92.252252-92.252252-64.576577-147.603603 18.45045-64.576577 101.477477-138.378378 175.27928-175.27928l46.126126-18.45045c18.45045-9.225225 36.900901-18.45045 46.126126-18.450451 9.225225 0 27.675676 0 27.675676 9.225226 9.225225 18.45045 9.225225 36.900901 0 73.801802l-64.576577 175.279279c-36.900901 73.801802-92.252252 110.702703-138.378378 110.702702z m138.378378-304.432432s-9.225225 0-27.675676 9.225225L513.583049 184.504505c-46.126126 27.675676-101.477477 73.801802-110.702703 119.927927-9.225225 27.675676 9.225225 64.576577 36.900901 73.801802h18.45045c27.675676 0 55.351351-27.675676 73.801802-55.351351l46.126126-129.153153c0-18.45045 0-27.675676-9.225225-27.675676z" fill="#1B80E3" p-id="1514"></path></svg>